<svg width="1920" height="197" viewBox="0 0 1920 197" fill="none" xmlns="http://www.w3.org/2000/svg">
<path d="M0 104L40.4579 118L76.9199 111.5L93.4027 125L108.887 104L152.341 125L214.277 136H267.222L299.188 149.5L379.605 142L411.571 149.5L447.534 125L545.931 118L619 113L635.338 104L703.767 86L765.702 55.5H826.139L859.105 31L928.033 40.5L1026 21.5L1057.5 27L1089.5 41L1127.33 36.5L1163.29 52.5L1201.75 31L1247.7 22.5L1281.5 41L1306.64 44L1401.54 86L1443.5 105L1480.96 109L1590 133.5L1659.5 140.5L1714 153.5H1755.5L1796.5 146L1839 153.5L1885 146L1920 165.5" stroke="white" stroke-width="2" stroke-dasharray="8 16 32 8 16 32"/>
<path d="M0 84L40.4579 98L76.9199 91.5L93.4027 105L108.887 84L152.341 105L214.277 116H267.222L299.188 129.5L379.605 122L411.571 129.5L447.534 105L545.931 98L619 93L635.338 84L703.767 66L765.702 35.5H826.139L859.105 11L928.033 20.5L1026 1.5L1057.5 7L1089.5 21L1127.33 16.5L1163.29 32.5L1201.75 11L1247.7 2.5L1281.5 21L1306.64 24L1401.54 66L1443.5 85L1480.96 89L1590 113.5L1659.5 120.5L1714 133.5H1755.5L1796.5 126L1839 133.5L1885 126L1920 145.5" stroke="white" stroke-width="2" stroke-miterlimit="6.07152" stroke-dasharray="15 8 20 15 40 20"/>
<path d="M0 134L40.4579 148L76.9199 141.5L93.4027 155L108.887 134L152.341 155L214.277 166H267.222L299.188 179.5L379.605 172L411.571 179.5L447.534 155L545.931 148L619 143L635.338 134L703.767 116L765.702 85.5H826.139L859.105 61L928.033 70.5L1026 51.5L1057.5 57L1089.5 71L1127.33 66.5L1163.29 82.5L1201.75 61L1247.7 52.5L1281.5 71L1306.64 74L1401.54 116L1443.5 135L1480.96 139L1590 163.5L1659.5 170.5L1714 183.5H1755.5L1796.5 176L1839 183.5L1885 176L1920 195.5" stroke="white" stroke-width="2" stroke-dasharray="20 10"/>
</svg>
