<svg width="118" height="136" viewBox="0 0 118 136" fill="none" xmlns="http://www.w3.org/2000/svg">
<path d="M29.024 66.576C26.368 66.576 23.792 66.224 21.296 65.52C18.832 64.784 16.848 63.84 15.344 62.688L17.984 56.832C19.424 57.888 21.136 58.736 23.12 59.376C25.104 60.016 27.088 60.336 29.072 60.336C31.28 60.336 32.912 60.016 33.968 59.376C35.024 58.704 35.552 57.824 35.552 56.736C35.552 55.936 35.232 55.28 34.592 54.768C33.984 54.224 33.184 53.792 32.192 53.472C31.232 53.152 29.92 52.8 28.256 52.416C25.696 51.808 23.6 51.2 21.968 50.592C20.336 49.984 18.928 49.008 17.744 47.664C16.592 46.32 16.016 44.528 16.016 42.288C16.016 40.336 16.544 38.576 17.6 37.008C18.656 35.408 20.24 34.144 22.352 33.216C24.496 32.288 27.104 31.824 30.176 31.824C32.32 31.824 34.416 32.08 36.464 32.592C38.512 33.104 40.304 33.84 41.84 34.8L39.44 40.704C36.336 38.944 33.232 38.064 30.128 38.064C27.952 38.064 26.336 38.416 25.28 39.12C24.256 39.824 23.744 40.752 23.744 41.904C23.744 43.056 24.336 43.92 25.52 44.496C26.736 45.04 28.576 45.584 31.04 46.128C33.6 46.736 35.696 47.344 37.328 47.952C38.96 48.56 40.352 49.52 41.504 50.832C42.688 52.144 43.28 53.92 43.28 56.16C43.28 58.08 42.736 59.84 41.648 61.44C40.592 63.008 38.992 64.256 36.848 65.184C34.704 66.112 32.096 66.576 29.024 66.576ZM50.8974 66.384C49.5854 66.384 48.4814 65.936 47.5854 65.04C46.6894 64.144 46.2414 63.024 46.2414 61.68C46.2414 60.304 46.6894 59.2 47.5854 58.368C48.4814 57.504 49.5854 57.072 50.8974 57.072C52.2094 57.072 53.3134 57.504 54.2094 58.368C55.1054 59.2 55.5534 60.304 55.5534 61.68C55.5534 63.024 55.1054 64.144 54.2094 65.04C53.3134 65.936 52.2094 66.384 50.8974 66.384ZM91.0693 74.4L76.5253 108H68.8453L54.3492 74.4H62.7493L72.9733 98.4L83.3413 74.4H91.0693ZM96.8818 108.384C95.5698 108.384 94.4658 107.936 93.5698 107.04C92.6738 106.144 92.2258 105.024 92.2258 103.68C92.2258 102.304 92.6738 101.2 93.5698 100.368C94.4658 99.504 95.5698 99.072 96.8818 99.072C98.1938 99.072 99.2978 99.504 100.194 100.368C101.09 101.2 101.538 102.304 101.538 103.68C101.538 105.024 101.09 106.144 100.194 107.04C99.2978 107.936 98.1938 108.384 96.8818 108.384Z" fill="white"/>
<rect x="4" y="4" width="110" height="128" stroke="white" stroke-width="8"/>
</svg>
