<svg width="48" height="48" viewBox="0 0 48 48" fill="none" xmlns="http://www.w3.org/2000/svg">
<circle cx="24" cy="24" r="24" fill="white"/>
<path d="M24 0C10.748 0 0 11.0177 0 24.6067C0 35.4788 6.876 44.7022 16.414 47.9565C17.612 48.1841 18 47.4213 18 46.7733V42.1923C11.324 43.681 9.934 39.2887 9.934 39.2887C8.842 36.4446 7.268 35.688 7.268 35.688C5.09 34.1603 7.434 34.1931 7.434 34.1931C9.844 34.3653 11.112 36.7296 11.112 36.7296C13.252 40.4904 16.726 39.4036 18.096 38.7741C18.31 37.1849 18.932 36.0981 19.62 35.485C14.29 34.8595 8.686 32.7495 8.686 23.3231C8.686 20.6348 9.624 18.4407 11.158 16.7182C10.91 16.0969 10.088 13.5932 11.392 10.2056C11.392 10.2056 13.408 9.54536 17.994 12.7278C19.908 12.1824 21.96 11.9097 24 11.8994C26.04 11.9097 28.094 12.1824 30.012 12.7278C34.594 9.54536 36.606 10.2056 36.606 10.2056C37.912 13.5952 37.09 16.099 36.842 16.7182C38.382 18.4407 39.312 20.6368 39.312 23.3231C39.312 32.7741 33.698 34.8554 28.354 35.4644C29.214 36.2273 30 37.7242 30 40.0208V46.7733C30 47.4274 30.384 48.1964 31.602 47.9544C41.132 44.6961 48 35.4747 48 24.6067C48 11.0177 37.254 0 24 0Z" fill="#C4C4C4"/>
</svg>
